{"glyphs":{"0":{"ha":882,"x_min":34,"x_max":848,"o":"m 424 271 l 424 0 l 305 0 q 34 271 34 0 l 34 678 q 305 949 34 949 l 424 949 l 424 678 l 373 678 l 373 271 l 424 271 m 458 678 l 458 949 l 576 949 q 848 678 848 949 l 848 271 q 576 0 848 0 l 458 0 l 458 271 l 509 271 l 509 678 l 458 678 z "},"1":{"ha":475,"x_min":34,"x_max":441,"o":"m 441 949 l 441 0 l 102 0 l 102 678 l 34 678 l 34 949 l 441 949 z "},"2":{"ha":882,"x_min":34,"x_max":848,"o":"m 424 678 l 102 678 l 102 949 l 424 949 l 424 678 m 458 271 l 780 271 l 780 0 l 458 0 l 458 271 m 424 0 l 34 0 l 34 339 q 305 610 34 610 l 509 610 l 509 678 l 458 678 l 458 949 l 576 949 q 848 678 848 949 l 848 610 q 576 339 848 339 l 373 339 l 373 271 l 424 271 l 424 0 z "},"3":{"ha":882,"x_min":34,"x_max":848,"o":"m 424 678 l 34 678 l 34 949 l 424 949 l 424 678 m 424 0 l 34 0 l 34 271 l 424 271 l 424 0 m 424 339 l 237 339 l 237 610 l 424 610 l 424 339 m 458 610 l 509 610 l 509 678 l 458 678 l 458 949 l 576 949 q 848 678 848 949 l 848 610 q 780 475 848 543 q 848 339 848 407 l 848 271 q 576 0 848 0 l 458 0 l 458 271 l 509 271 l 509 339 l 458 339 l 458 610 z "},"4":{"ha":882,"x_min":34,"x_max":848,"o":"m 475 339 l 34 339 l 136 949 l 475 949 l 403 610 l 475 610 l 475 339 m 509 949 l 848 949 l 848 0 l 509 0 l 509 949 z "},"5":{"ha":882,"x_min":34,"x_max":848,"o":"m 424 0 l 102 0 l 102 271 l 424 271 l 424 0 m 576 610 q 848 339 848 610 l 848 271 q 576 0 848 0 l 458 0 l 458 271 l 509 271 l 509 339 l 305 339 q 34 610 34 339 l 34 644 l 373 644 l 373 610 l 576 610 m 34 678 l 34 949 l 780 949 l 780 678 l 34 678 z "},"6":{"ha":882,"x_min":34,"x_max":848,"o":"m 424 271 l 424 0 l 305 0 q 34 271 34 0 l 34 678 q 305 949 34 949 l 424 949 l 424 678 l 373 678 l 373 610 l 424 610 l 424 339 l 373 339 l 373 271 l 424 271 m 458 949 l 780 949 l 780 678 l 458 678 l 458 949 m 458 339 l 458 610 l 576 610 q 848 339 848 610 l 848 271 q 576 0 848 0 l 458 0 l 458 271 l 509 271 l 509 339 l 458 339 z "},"7":{"ha":814,"x_min":34,"x_max":780,"o":"m 407 949 l 780 949 l 543 0 l 170 0 l 407 949 m 305 678 l 34 678 l 34 949 l 372 949 l 305 678 z "},"8":{"ha":882,"x_min":34,"x_max":846,"o":"m 424 610 l 424 339 l 373 339 l 373 271 l 424 271 l 424 0 l 305 0 q 34 271 34 0 l 34 339 q 102 475 34 441 q 34 610 34 509 l 34 678 q 305 949 34 949 l 424 949 l 424 678 l 373 678 l 373 610 l 424 610 m 458 339 l 458 610 l 507 610 l 507 678 l 458 678 l 458 949 l 575 949 q 846 678 846 949 l 846 606 q 779 475 846 508 q 846 343 846 441 l 846 271 q 575 0 846 0 l 458 0 l 458 271 l 507 271 l 507 339 l 458 339 z "},"9":{"ha":882,"x_min":34,"x_max":848,"o":"m 458 678 l 458 949 l 576 949 q 848 678 848 949 l 848 271 q 576 0 848 0 l 458 0 l 458 271 l 509 271 l 509 339 l 458 339 l 458 610 l 509 610 l 509 678 l 458 678 m 424 0 l 102 0 l 102 271 l 424 271 l 424 0 m 424 610 l 424 339 l 305 339 q 34 610 34 339 l 34 678 q 305 949 34 949 l 424 949 l 424 678 l 373 678 l 373 610 l 424 610 z "},"\u0000":{"ha":0,"x_min":0,"x_max":0,"o":""}," ":{"ha":345,"x_min":0,"x_max":0,"o":""},"!":{"ha":407,"x_min":34,"x_max":373,"o":"m 34 373 l 34 949 l 373 949 l 373 373 l 34 373 m 203 339 q 323 290 274 339 q 373 170 373 240 q 323 50 373 99 q 203 0 274 0 q 83 50 133 0 q 34 170 34 99 q 83 290 34 240 q 203 339 133 339 z "},"\"":{"ha":678,"x_min":34,"x_max":644,"o":"m 305 949 l 305 543 l 34 543 l 34 949 l 305 949 m 644 949 l 644 543 l 373 543 l 373 949 l 644 949 z "},"#":{"ha":1199,"x_min":34,"x_max":1165,"o":"m 174 407 l 210 543 l 142 543 l 216 814 l 283 814 l 319 949 l 625 949 l 589 814 l 792 814 l 828 949 l 1133 949 l 1097 814 l 1165 814 l 1092 543 l 1024 543 l 988 407 l 1056 407 l 983 136 l 916 136 l 879 0 l 574 0 l 610 136 l 407 136 l 370 0 l 65 0 l 102 136 l 34 136 l 106 407 l 174 407 m 515 543 l 479 407 l 683 407 l 719 543 l 515 543 z "},"$":{"ha":882,"x_min":34,"x_max":848,"o":"m 424 339 l 305 339 q 34 610 34 339 l 34 678 q 305 949 34 949 l 424 949 l 424 678 l 373 678 l 373 610 l 424 610 l 424 339 m 458 271 l 509 271 l 509 339 l 458 339 l 458 610 l 576 610 q 848 339 848 610 l 848 271 q 576 0 848 0 l 509 0 l 509 -68 l 458 -68 l 458 271 m 509 949 l 780 949 l 780 678 l 458 678 l 458 1017 l 509 1017 l 509 949 m 424 0 l 102 0 l 102 271 l 424 271 l 424 0 z "},"%":{"ha":1017,"x_min":34,"x_max":983,"o":"m 949 949 l 374 0 l 68 0 l 646 949 l 949 949 m 814 339 q 934 290 884 339 q 983 170 983 240 q 934 50 983 99 q 814 0 884 0 q 694 50 743 0 q 644 170 644 99 q 694 290 644 240 q 814 339 743 339 m 203 949 q 323 900 274 949 q 373 780 373 850 q 323 660 373 709 q 203 610 274 610 q 83 660 133 610 q 34 780 34 709 q 83 900 34 850 q 203 949 133 949 z "},"&":{"ha":983,"x_min":34,"x_max":949,"o":"m 424 610 l 424 339 l 373 339 l 373 271 l 424 271 l 424 0 l 305 0 q 34 271 34 0 l 34 339 q 102 475 34 441 q 34 610 34 509 l 34 678 q 305 949 34 949 l 424 949 l 424 678 l 373 678 l 373 610 l 424 610 m 458 339 l 458 610 l 507 610 l 507 678 l 458 678 l 458 949 l 575 949 q 846 678 846 949 l 846 610 l 949 610 l 949 339 l 846 339 l 846 271 q 575 0 846 0 l 458 0 l 458 271 l 507 271 l 507 339 l 458 339 z "},"'":{"ha":339,"x_min":34,"x_max":305,"o":"m 305 949 l 305 543 l 34 543 l 34 949 l 305 949 z "},"(":{"ha":543,"x_min":34,"x_max":509,"o":"m 34 492 l 34 610 q 509 1085 34 1085 l 509 814 q 305 610 305 814 l 305 492 l 34 492 m 305 458 l 305 339 q 509 136 305 136 l 509 -136 q 34 339 34 -136 l 34 458 l 305 458 z "},")":{"ha":543,"x_min":34,"x_max":509,"o":"m 509 492 l 237 492 l 237 610 q 34 814 237 814 l 34 1085 q 509 610 509 1085 l 509 492 m 237 458 l 509 458 l 509 339 q 34 -136 509 -136 l 34 136 q 237 339 237 136 l 237 458 z "},"*":{"ha":746,"x_min":34,"x_max":712,"o":"m 454 644 l 712 644 l 712 576 l 456 576 l 638 396 l 591 348 l 407 529 l 407 271 l 339 271 l 339 528 l 159 345 l 111 393 l 292 576 l 34 576 l 34 644 l 290 644 l 108 825 l 155 873 l 339 692 l 339 949 l 407 949 l 407 693 l 587 876 l 635 828 l 454 644 z "},"+":{"ha":746,"x_min":34,"x_max":712,"o":"m 509 610 l 712 610 l 712 339 l 509 339 l 509 136 l 237 136 l 237 339 l 34 339 l 34 610 l 237 610 l 237 814 l 509 814 l 509 610 z "},",":{"ha":509,"x_min":34,"x_max":475,"o":"m 475 271 l 305 -203 l 34 -203 l 136 271 l 475 271 z "},"-":{"ha":543,"x_min":34,"x_max":509,"o":"m 509 610 l 509 339 l 34 339 l 34 610 l 509 610 z "},".":{"ha":407,"x_min":34,"x_max":373,"o":"m 203 339 q 323 290 274 339 q 373 170 373 240 q 323 50 373 99 q 203 0 274 0 q 83 50 133 0 q 34 170 34 99 q 83 290 34 240 q 203 339 133 339 z "},"/":{"ha":960,"x_min":34,"x_max":926,"o":"m 926 1085 l 317 -136 l 34 -136 l 650 1085 l 926 1085 z "},":":{"ha":407,"x_min":34,"x_max":373,"o":"m 203 339 q 323 290 274 339 q 373 170 373 240 q 323 50 373 99 q 203 0 274 0 q 83 50 133 0 q 34 170 34 99 q 83 290 34 240 q 203 339 133 339 m 203 746 q 323 696 274 746 q 373 576 373 647 q 323 456 373 506 q 203 407 274 407 q 83 456 133 407 q 34 576 34 506 q 83 696 34 647 q 203 746 133 746 z "},";":{"ha":543,"x_min":34,"x_max":509,"o":"m 509 339 l 305 -68 l 34 -68 l 170 339 l 509 339 m 339 746 q 459 696 410 746 q 509 576 509 647 q 459 456 509 506 q 339 407 410 407 q 219 456 269 407 q 170 576 170 506 q 219 696 170 647 q 339 746 269 746 z "},"<":{"ha":644,"x_min":34,"x_max":610,"o":"m 34 543 l 610 882 l 610 610 l 339 475 l 610 339 l 610 68 l 34 407 l 34 543 z "},"=":{"ha":746,"x_min":34,"x_max":712,"o":"m 712 814 l 712 543 l 34 543 l 34 814 l 712 814 m 712 407 l 712 136 l 34 136 l 34 407 l 712 407 z "},">":{"ha":644,"x_min":34,"x_max":610,"o":"m 610 543 l 610 407 l 34 68 l 34 339 l 305 475 l 34 610 l 34 882 l 610 543 z "},"?":{"ha":882,"x_min":34,"x_max":848,"o":"m 424 949 l 424 678 l 373 678 l 373 610 l 34 610 l 34 678 q 305 949 34 949 l 424 949 m 561 290 q 586 265 561 290 q 610 170 610 240 q 561 50 610 99 q 441 0 511 0 q 321 50 370 0 q 271 170 271 99 q 321 290 271 240 q 441 339 370 339 q 561 290 511 339 m 848 610 q 576 373 848 373 l 407 373 l 407 610 l 509 610 l 509 678 l 458 678 l 458 949 l 576 949 q 848 678 848 949 l 848 610 z "},"@":{"ha":1024,"x_min":34,"x_max":990,"o":"m 522 288 q 386 243 469 243 q 273 288 309 243 q 247 365 247 319 q 252 409 247 385 q 379 625 277 531 q 600 719 481 719 q 767 667 661 719 q 678 469 691 507 q 659 404 665 431 q 657 388 657 395 q 666 374 657 374 q 762 437 715 374 q 826 587 808 500 q 838 663 838 629 q 803 757 838 722 q 648 813 747 813 q 362 694 490 813 q 197 395 235 576 q 189 323 189 357 q 224 206 189 254 q 384 135 276 135 q 501 155 441 135 q 614 222 562 174 l 677 111 q 512 28 604 57 q 342 0 421 0 q 92 106 175 0 q 34 286 34 180 q 45 382 34 331 q 278 786 96 624 q 689 948 460 948 q 934 857 854 948 q 990 695 990 792 q 980 607 990 654 q 852 358 950 467 q 631 250 753 250 q 522 288 548 250 m 571 601 q 475 543 524 601 q 411 416 426 484 q 409 397 409 406 q 432 372 409 372 q 493 399 464 372 q 542 473 522 426 q 590 595 561 519 q 571 601 585 601 z "},"A":{"ha":1017,"x_min":34,"x_max":983,"o":"m 523 339 l 590 68 l 390 68 l 373 0 l 34 0 l 305 949 l 373 949 l 491 471 l 458 339 l 523 339 m 408 949 l 712 949 l 983 0 l 644 0 l 408 949 z "},"B":{"ha":882,"x_min":34,"x_max":848,"o":"m 407 339 l 407 610 l 509 610 l 509 678 l 407 678 l 407 949 l 576 949 q 848 678 848 949 l 848 610 q 780 475 848 509 q 848 339 848 441 l 848 271 q 576 0 848 0 l 407 0 l 407 271 l 509 271 l 509 339 l 407 339 m 373 0 l 34 0 l 34 949 l 373 949 l 373 0 z "},"C":{"ha":882,"x_min":34,"x_max":848,"o":"m 458 949 l 576 949 q 848 678 848 949 l 848 610 l 509 610 l 509 678 l 458 678 l 458 949 m 458 271 l 509 271 l 509 339 l 848 339 l 848 271 q 576 0 848 0 l 458 0 l 458 271 m 424 0 l 305 0 q 34 271 34 0 l 34 678 q 305 949 34 949 l 424 949 l 424 678 l 373 678 l 373 271 l 424 271 l 424 0 z "},"D":{"ha":882,"x_min":34,"x_max":848,"o":"m 373 0 l 407 0 l 407 -17 l 373 -17 l 373 0 m 407 678 l 407 949 l 576 949 q 848 678 848 949 l 848 271 q 576 0 848 0 l 407 0 l 407 271 l 509 271 l 509 678 l 407 678 m 373 0 l 34 0 l 34 949 l 373 949 l 373 0 z "},"E":{"ha":746,"x_min":34,"x_max":712,"o":"m 373 0 l 34 0 l 34 949 l 373 949 l 373 0 m 407 949 l 712 949 l 712 678 l 407 678 l 407 949 m 407 610 l 712 610 l 712 339 l 407 339 l 407 610 m 407 271 l 712 271 l 712 0 l 407 0 l 407 271 z "},"F":{"ha":746,"x_min":34,"x_max":712,"o":"m 373 0 l 34 0 l 34 949 l 373 949 l 373 0 m 407 949 l 712 949 l 712 678 l 407 678 l 407 949 m 407 610 l 712 610 l 712 339 l 407 339 l 407 610 z "},"G":{"ha":882,"x_min":34,"x_max":848,"o":"m 458 610 l 848 610 l 848 0 l 458 0 l 458 271 l 509 271 l 509 339 l 458 339 l 458 610 m 458 949 l 848 949 l 848 678 l 458 678 l 458 949 m 424 678 l 373 678 l 373 271 l 424 271 l 424 0 l 305 0 q 34 271 34 0 l 34 678 q 305 949 34 949 l 424 949 l 424 678 z "},"H":{"ha":882,"x_min":34,"x_max":848,"o":"m 373 0 l 34 0 l 34 949 l 373 949 l 373 0 m 407 610 l 509 610 l 509 949 l 848 949 l 848 0 l 509 0 l 509 339 l 407 339 l 407 610 z "},"I":{"ha":407,"x_min":34,"x_max":373,"o":"m 373 949 l 373 0 l 34 0 l 34 949 l 373 949 z "},"J":{"ha":882,"x_min":34,"x_max":848,"o":"m 424 0 l 305 0 q 34 271 34 0 l 34 339 l 373 339 l 373 271 l 424 271 l 424 0 m 458 271 l 509 271 l 509 949 l 848 949 l 848 271 q 576 0 848 0 l 458 0 l 458 271 z "},"K":{"ha":949,"x_min":34,"x_max":916,"o":"m 373 949 l 373 0 l 34 0 l 34 949 l 373 949 m 407 797 l 509 949 l 916 949 l 543 475 l 916 0 l 509 0 l 407 153 l 407 797 z "},"L":{"ha":678,"x_min":34,"x_max":644,"o":"m 373 0 l 34 0 l 34 949 l 373 949 l 373 0 m 407 271 l 644 271 l 644 0 l 407 0 l 407 271 z "},"M":{"ha":1153,"x_min":34,"x_max":1119,"o":"m 559 0 l 475 0 l 407 300 l 373 441 l 373 0 l 34 0 l 34 949 l 441 949 l 559 475 l 559 0 m 593 475 l 712 949 l 1119 949 l 1119 0 l 780 0 l 780 441 l 678 0 l 593 0 l 593 475 z "},"N":{"ha":882,"x_min":34,"x_max":848,"o":"m 103 949 l 305 949 l 509 543 l 509 949 l 848 949 l 848 0 l 576 0 l 103 949 m 373 330 l 373 0 l 34 0 l 34 949 l 65 949 l 373 330 z "},"O":{"ha":882,"x_min":34,"x_max":848,"o":"m 424 271 l 424 0 l 305 0 q 34 271 34 0 l 34 678 q 305 949 34 949 l 424 949 l 424 678 l 373 678 l 373 271 l 424 271 m 458 678 l 458 949 l 576 949 q 848 678 848 949 l 848 271 q 576 0 848 0 l 458 0 l 458 271 l 509 271 l 509 678 l 458 678 z "},"P":{"ha":882,"x_min":34,"x_max":848,"o":"m 407 678 l 407 949 l 576 949 q 848 678 848 949 l 848 610 q 576 339 848 339 l 407 339 l 407 610 l 509 610 l 509 678 l 407 678 m 373 0 l 34 0 l 34 949 l 373 949 l 373 0 z "},"Q":{"ha":882,"x_min":34,"x_max":848,"o":"m 424 271 l 424 0 l 305 0 q 34 271 34 0 l 34 678 q 305 949 34 949 l 424 949 l 424 678 l 373 678 l 373 271 l 424 271 m 576 0 l 458 0 l 458 271 l 509 271 l 509 678 l 458 678 l 458 949 l 576 949 q 848 678 848 949 l 848 271 q 756 47 848 114 l 814 -68 l 610 -68 l 576 0 z "},"R":{"ha":882,"x_min":34,"x_max":848,"o":"m 407 678 l 407 949 l 576 949 q 848 678 848 949 l 848 610 q 699 357 848 410 l 848 0 l 509 0 l 407 254 l 407 610 l 509 610 l 509 678 l 407 678 m 373 0 l 34 0 l 34 949 l 373 949 l 373 0 z "},"S":{"ha":882,"x_min":34,"x_max":848,"o":"m 424 339 l 305 339 q 34 610 34 339 l 34 678 q 305 949 34 949 l 424 949 l 424 678 l 373 678 l 373 610 l 424 610 l 424 339 m 458 949 l 780 949 l 780 678 l 458 678 l 458 949 m 424 0 l 102 0 l 102 271 l 424 271 l 424 0 m 458 271 l 509 271 l 509 339 l 458 339 l 458 610 l 576 610 q 848 339 848 610 l 848 271 q 576 0 848 0 l 458 0 l 458 271 z "},"T":{"ha":746,"x_min":34,"x_max":712,"o":"m 34 678 l 34 949 l 712 949 l 712 678 l 34 678 m 543 644 l 543 0 l 203 0 l 203 644 l 543 644 z "},"U":{"ha":882,"x_min":34,"x_max":848,"o":"m 458 271 l 509 271 l 509 949 l 848 949 l 848 271 q 576 0 848 0 l 458 0 l 458 271 m 424 0 l 305 0 q 34 271 34 0 l 34 949 l 373 949 l 373 271 l 424 271 l 424 0 z "},"V":{"ha":1017,"x_min":34,"x_max":983,"o":"m 491 479 l 373 0 l 305 0 l 34 949 l 373 949 l 491 479 m 408 0 l 644 949 l 983 949 l 712 0 l 408 0 z "},"W":{"ha":1628,"x_min":34,"x_max":1594,"o":"m 491 479 l 373 0 l 305 0 l 34 949 l 373 949 l 491 479 m 1018 0 l 1255 949 l 1594 949 l 1322 0 l 1018 0 m 814 356 l 712 0 l 408 0 l 644 949 l 983 949 l 1101 479 l 983 0 l 916 0 l 814 356 z "},"X":{"ha":1017,"x_min":34,"x_max":983,"o":"m 34 949 l 407 949 l 983 0 l 611 0 l 34 949 m 530 819 l 610 949 l 983 949 l 717 511 l 530 819 m 489 136 l 407 0 l 34 0 l 303 443 l 489 136 z "},"Y":{"ha":1017,"x_min":34,"x_max":983,"o":"m 644 949 l 983 949 l 677 481 l 679 0 l 340 0 l 338 481 l 644 949 m 314 514 l 34 949 l 373 949 l 488 777 l 314 514 z "},"Z":{"ha":814,"x_min":34,"x_max":780,"o":"m 221 0 l 34 0 l 34 271 l 593 949 l 780 949 l 780 678 l 221 0 m 326 678 l 34 678 l 34 949 l 550 949 l 326 678 m 488 271 l 780 271 l 780 0 l 264 0 l 488 271 z "},"[":{"ha":543,"x_min":34,"x_max":509,"o":"m 34 492 l 34 1085 l 509 1085 l 509 814 l 305 814 l 305 492 l 34 492 m 305 458 l 305 136 l 509 136 l 509 -136 l 34 -136 l 34 458 l 305 458 z "},"\\":{"ha":960,"x_min":34,"x_max":926,"o":"m 309 1085 l 926 -136 l 642 -136 l 34 1085 l 309 1085 z "},"]":{"ha":543,"x_min":34,"x_max":509,"o":"m 509 492 l 237 492 l 237 814 l 34 814 l 34 1085 l 509 1085 l 509 492 m 237 458 l 509 458 l 509 -136 l 34 -136 l 34 136 l 237 136 l 237 458 z "},"^":{"ha":746,"x_min":34,"x_max":712,"o":"m 576 949 l 712 610 l 441 610 l 373 780 l 305 610 l 34 610 l 170 949 l 576 949 z "},"_":{"ha":882,"x_min":34,"x_max":848,"o":"m 848 271 l 848 0 l 34 0 l 34 271 l 848 271 z "},"`":{"ha":475,"x_min":34,"x_max":441,"o":"m 34 1356 l 305 1356 l 441 1017 l 170 1017 l 34 1356 z "},"a":{"ha":1017,"x_min":34,"x_max":983,"o":"m 523 339 l 590 68 l 390 68 l 373 0 l 34 0 l 305 949 l 373 949 l 491 471 l 458 339 l 523 339 m 408 949 l 712 949 l 983 0 l 644 0 l 408 949 z "},"b":{"ha":882,"x_min":34,"x_max":848,"o":"m 407 339 l 407 610 l 509 610 l 509 678 l 407 678 l 407 949 l 576 949 q 848 678 848 949 l 848 610 q 780 475 848 509 q 848 339 848 441 l 848 271 q 576 0 848 0 l 407 0 l 407 271 l 509 271 l 509 339 l 407 339 m 373 0 l 34 0 l 34 949 l 373 949 l 373 0 z "},"c":{"ha":882,"x_min":34,"x_max":848,"o":"m 458 949 l 576 949 q 848 678 848 949 l 848 610 l 509 610 l 509 678 l 458 678 l 458 949 m 458 271 l 509 271 l 509 339 l 848 339 l 848 271 q 576 0 848 0 l 458 0 l 458 271 m 424 0 l 305 0 q 34 271 34 0 l 34 678 q 305 949 34 949 l 424 949 l 424 678 l 373 678 l 373 271 l 424 271 l 424 0 z "},"d":{"ha":882,"x_min":34,"x_max":848,"o":"m 373 0 l 407 0 l 407 -17 l 373 -17 l 373 0 m 407 678 l 407 949 l 576 949 q 848 678 848 949 l 848 271 q 576 0 848 0 l 407 0 l 407 271 l 509 271 l 509 678 l 407 678 m 373 0 l 34 0 l 34 949 l 373 949 l 373 0 z "},"e":{"ha":746,"x_min":34,"x_max":712,"o":"m 373 0 l 34 0 l 34 949 l 373 949 l 373 0 m 407 949 l 712 949 l 712 678 l 407 678 l 407 949 m 407 610 l 712 610 l 712 339 l 407 339 l 407 610 m 407 271 l 712 271 l 712 0 l 407 0 l 407 271 z "},"f":{"ha":746,"x_min":34,"x_max":712,"o":"m 373 0 l 34 0 l 34 949 l 373 949 l 373 0 m 407 949 l 712 949 l 712 678 l 407 678 l 407 949 m 407 610 l 712 610 l 712 339 l 407 339 l 407 610 z "},"g":{"ha":882,"x_min":34,"x_max":848,"o":"m 458 610 l 848 610 l 848 0 l 458 0 l 458 271 l 509 271 l 509 339 l 458 339 l 458 610 m 458 949 l 848 949 l 848 678 l 458 678 l 458 949 m 424 678 l 373 678 l 373 271 l 424 271 l 424 0 l 305 0 q 34 271 34 0 l 34 678 q 305 949 34 949 l 424 949 l 424 678 z "},"h":{"ha":882,"x_min":34,"x_max":848,"o":"m 373 0 l 34 0 l 34 949 l 373 949 l 373 0 m 407 610 l 509 610 l 509 949 l 848 949 l 848 0 l 509 0 l 509 339 l 407 339 l 407 610 z "},"i":{"ha":407,"x_min":34,"x_max":373,"o":"m 373 949 l 373 0 l 34 0 l 34 949 l 373 949 z "},"j":{"ha":882,"x_min":34,"x_max":848,"o":"m 424 0 l 305 0 q 34 271 34 0 l 34 339 l 373 339 l 373 271 l 424 271 l 424 0 m 458 271 l 509 271 l 509 949 l 848 949 l 848 271 q 576 0 848 0 l 458 0 l 458 271 z "},"k":{"ha":949,"x_min":34,"x_max":916,"o":"m 373 949 l 373 0 l 34 0 l 34 949 l 373 949 m 407 797 l 509 949 l 916 949 l 543 475 l 916 0 l 509 0 l 407 153 l 407 797 z "},"l":{"ha":678,"x_min":34,"x_max":644,"o":"m 373 0 l 34 0 l 34 949 l 373 949 l 373 0 m 407 271 l 644 271 l 644 0 l 407 0 l 407 271 z "},"m":{"ha":1153,"x_min":34,"x_max":1119,"o":"m 559 0 l 475 0 l 407 300 l 373 441 l 373 0 l 34 0 l 34 949 l 441 949 l 559 475 l 559 0 m 593 475 l 712 949 l 1119 949 l 1119 0 l 780 0 l 780 441 l 678 0 l 593 0 l 593 475 z "},"n":{"ha":882,"x_min":34,"x_max":848,"o":"m 103 949 l 305 949 l 509 543 l 509 949 l 848 949 l 848 0 l 576 0 l 103 949 m 373 330 l 373 0 l 34 0 l 34 949 l 65 949 l 373 330 z "},"o":{"ha":882,"x_min":34,"x_max":848,"o":"m 424 271 l 424 0 l 305 0 q 34 271 34 0 l 34 678 q 305 949 34 949 l 424 949 l 424 678 l 373 678 l 373 271 l 424 271 m 458 678 l 458 949 l 576 949 q 848 678 848 949 l 848 271 q 576 0 848 0 l 458 0 l 458 271 l 509 271 l 509 678 l 458 678 z "},"p":{"ha":882,"x_min":34,"x_max":848,"o":"m 407 678 l 407 949 l 576 949 q 848 678 848 949 l 848 610 q 576 339 848 339 l 407 339 l 407 610 l 509 610 l 509 678 l 407 678 m 373 0 l 34 0 l 34 949 l 373 949 l 373 0 z "},"q":{"ha":882,"x_min":34,"x_max":848,"o":"m 424 271 l 424 0 l 305 0 q 34 271 34 0 l 34 678 q 305 949 34 949 l 424 949 l 424 678 l 373 678 l 373 271 l 424 271 m 576 0 l 458 0 l 458 271 l 509 271 l 509 678 l 458 678 l 458 949 l 576 949 q 848 678 848 949 l 848 271 q 756 47 848 114 l 814 -68 l 610 -68 l 576 0 z "},"r":{"ha":882,"x_min":34,"x_max":848,"o":"m 407 678 l 407 949 l 576 949 q 848 678 848 949 l 848 610 q 699 357 848 410 l 848 0 l 509 0 l 407 254 l 407 610 l 509 610 l 509 678 l 407 678 m 373 0 l 34 0 l 34 949 l 373 949 l 373 0 z "},"s":{"ha":882,"x_min":34,"x_max":848,"o":"m 424 339 l 305 339 q 34 610 34 339 l 34 678 q 305 949 34 949 l 424 949 l 424 678 l 373 678 l 373 610 l 424 610 l 424 339 m 458 949 l 780 949 l 780 678 l 458 678 l 458 949 m 424 0 l 102 0 l 102 271 l 424 271 l 424 0 m 458 271 l 509 271 l 509 339 l 458 339 l 458 610 l 576 610 q 848 339 848 610 l 848 271 q 576 0 848 0 l 458 0 l 458 271 z "},"t":{"ha":746,"x_min":34,"x_max":712,"o":"m 34 678 l 34 949 l 712 949 l 712 678 l 34 678 m 543 644 l 543 0 l 203 0 l 203 644 l 543 644 z "},"u":{"ha":882,"x_min":34,"x_max":848,"o":"m 458 271 l 509 271 l 509 949 l 848 949 l 848 271 q 576 0 848 0 l 458 0 l 458 271 m 424 0 l 305 0 q 34 271 34 0 l 34 949 l 373 949 l 373 271 l 424 271 l 424 0 z "},"v":{"ha":1017,"x_min":34,"x_max":983,"o":"m 491 479 l 373 0 l 305 0 l 34 949 l 373 949 l 491 479 m 408 0 l 644 949 l 983 949 l 712 0 l 408 0 z "},"w":{"ha":1628,"x_min":34,"x_max":1594,"o":"m 491 479 l 373 0 l 305 0 l 34 949 l 373 949 l 491 479 m 1018 0 l 1255 949 l 1594 949 l 1322 0 l 1018 0 m 814 356 l 712 0 l 408 0 l 644 949 l 983 949 l 1101 479 l 983 0 l 916 0 l 814 356 z "},"x":{"ha":1017,"x_min":34,"x_max":983,"o":"m 34 949 l 407 949 l 983 0 l 611 0 l 34 949 m 530 819 l 610 949 l 983 949 l 717 511 l 530 819 m 489 136 l 407 0 l 34 0 l 303 443 l 489 136 z "},"y":{"ha":1017,"x_min":34,"x_max":983,"o":"m 644 949 l 983 949 l 677 481 l 679 0 l 340 0 l 338 481 l 644 949 m 314 514 l 34 949 l 373 949 l 488 777 l 314 514 z "},"z":{"ha":814,"x_min":34,"x_max":780,"o":"m 221 0 l 34 0 l 34 271 l 593 949 l 780 949 l 780 678 l 221 0 m 326 678 l 34 678 l 34 949 l 550 949 l 326 678 m 488 271 l 780 271 l 780 0 l 264 0 l 488 271 z "},"{":{"ha":678,"x_min":34,"x_max":644,"o":"m 170 610 q 644 1085 170 1085 l 644 814 q 441 610 441 814 l 441 339 q 644 136 441 136 l 644 -136 q 170 339 170 -136 l 34 339 l 34 610 l 170 610 z "},"|":{"ha":339,"x_min":34,"x_max":305,"o":"m 34 492 l 34 1085 l 305 1085 l 305 492 l 34 492 m 305 458 l 305 -136 l 34 -136 l 34 458 l 305 458 z "},"}":{"ha":678,"x_min":34,"x_max":644,"o":"m 509 339 q 34 -136 509 -136 l 34 136 q 237 339 237 136 l 237 610 q 34 814 237 814 l 34 1085 q 509 610 509 1085 l 644 610 l 644 339 l 509 339 z "},"~":{"ha":746,"x_min":34,"x_max":712,"o":"m 34 294 l 34 565 q 220 599 136 599 q 373 565 305 599 q 471 543 418 543 q 712 633 576 543 l 712 361 q 471 271 576 271 q 373 294 418 271 q 220 328 305 328 q 34 294 136 328 z "},"¡":{"ha":407,"x_min":34,"x_max":373,"o":"m 373 576 l 373 0 l 34 0 l 34 576 l 373 576 m 203 610 q 83 660 133 610 q 34 780 34 709 q 83 900 34 850 q 203 949 133 949 q 323 900 274 949 q 373 780 373 850 q 323 660 373 709 q 203 610 274 610 z "},"¢":{"ha":882,"x_min":0,"x_max":848,"o":"m 458 271 l 509 271 l 509 339 l 848 339 l 848 271 q 576 0 848 0 l 458 0 l 458 271 m 509 642 l 509 678 l 458 678 l 458 949 l 576 949 q 728 919 668 949 l 780 983 l 848 983 l 772 888 q 848 678 848 821 l 848 610 l 552 610 l 373 385 l 373 271 l 424 271 l 424 0 l 305 0 q 113 57 180 0 l 68 0 l 0 0 l 77 98 q 34 271 34 163 l 34 678 q 305 949 34 949 l 424 949 l 424 678 l 373 678 l 373 470 l 509 642 z "},"£":{"ha":949,"x_min":34,"x_max":916,"o":"m 492 678 l 441 678 l 441 543 l 746 543 l 746 339 l 441 339 l 441 271 l 492 271 l 492 0 l 102 0 l 102 339 l 34 339 l 34 543 l 102 543 l 102 678 q 373 949 102 949 l 492 949 l 492 678 m 526 271 l 916 271 l 916 0 l 526 0 l 526 271 m 526 949 l 644 949 q 916 678 916 949 l 916 610 l 576 610 l 576 678 l 526 678 l 526 949 z "},"¥":{"ha":1017,"x_min":34,"x_max":983,"o":"m 314 514 l 34 949 l 373 949 l 488 777 l 314 514 m 338 407 l 338 481 l 644 949 l 983 949 l 677 481 l 677 407 l 814 407 l 814 339 l 678 339 l 678 305 l 814 305 l 814 237 l 678 237 l 679 0 l 340 0 l 339 237 l 203 237 l 203 305 l 339 305 l 339 339 l 203 339 l 203 407 l 338 407 z "},"´":{"ha":475,"x_min":34,"x_max":441,"o":"m 305 1017 l 34 1017 l 170 1356 l 441 1356 l 305 1017 z "},"¿":{"ha":882,"x_min":34,"x_max":848,"o":"m 458 0 l 458 271 l 509 271 l 509 339 l 848 339 l 848 271 q 576 0 848 0 l 458 0 m 321 660 q 296 685 321 660 q 271 780 271 709 q 321 900 271 850 q 441 949 370 949 q 561 900 511 949 q 610 780 610 850 q 561 660 610 709 q 441 610 511 610 q 321 660 370 610 m 34 339 q 305 576 34 576 l 475 576 l 475 339 l 373 339 l 373 271 l 424 271 l 424 0 l 305 0 q 34 271 34 0 l 34 339 z "},"À":{"ha":1017,"x_min":34,"x_max":983,"o":"m 523 339 l 590 68 l 390 68 l 373 0 l 34 0 l 305 949 l 373 949 l 491 471 l 458 339 l 523 339 m 408 949 l 712 949 l 983 0 l 644 0 l 408 949 m 271 1289 l 475 1289 l 610 1017 l 407 1017 l 271 1289 z "},"Á":{"ha":1017,"x_min":34,"x_max":983,"o":"m 523 339 l 590 68 l 390 68 l 373 0 l 34 0 l 305 949 l 373 949 l 491 471 l 458 339 l 523 339 m 408 949 l 712 949 l 983 0 l 644 0 l 408 949 m 746 1289 l 610 1017 l 407 1017 l 543 1289 l 746 1289 z "},"Â":{"ha":1017,"x_min":34,"x_max":983,"o":"m 523 339 l 590 68 l 390 68 l 373 0 l 34 0 l 305 949 l 373 949 l 491 471 l 458 339 l 523 339 m 408 949 l 712 949 l 983 0 l 644 0 l 408 949 m 509 1153 l 441 1017 l 237 1017 l 373 1289 l 644 1289 l 780 1017 l 576 1017 l 509 1153 z "},"Ã":{"ha":1017,"x_min":34,"x_max":983,"o":"m 523 339 l 590 68 l 390 68 l 373 0 l 34 0 l 305 949 l 373 949 l 491 471 l 458 339 l 523 339 m 408 949 l 712 949 l 983 0 l 644 0 l 408 949 m 238 1050 l 236 1227 q 385 1258 317 1258 q 507 1227 453 1258 q 586 1207 544 1207 q 779 1289 670 1207 l 781 1112 q 588 1030 672 1030 q 509 1050 545 1030 q 387 1081 455 1081 q 238 1050 319 1081 z "},"Ä":{"ha":1017,"x_min":34,"x_max":983,"o":"m 523 339 l 590 68 l 390 68 l 373 0 l 34 0 l 305 949 l 373 949 l 491 471 l 458 339 l 523 339 m 408 949 l 712 949 l 983 0 l 644 0 l 408 949 m 356 1017 q 272 1052 307 1017 q 237 1136 237 1087 q 272 1220 237 1185 q 356 1255 307 1255 q 440 1220 405 1255 q 475 1136 475 1185 q 440 1052 475 1087 q 356 1017 405 1017 m 661 1017 q 577 1052 612 1017 q 543 1136 543 1087 q 577 1220 543 1185 q 661 1255 612 1255 q 745 1220 710 1255 q 780 1136 780 1185 q 745 1052 780 1087 q 661 1017 710 1017 z "},"Å":{"ha":1017,"x_min":34,"x_max":983,"o":"m 509 1034 q 556 1054 536 1034 q 576 1102 576 1074 q 556 1150 576 1130 q 509 1170 536 1170 q 461 1150 481 1170 q 441 1102 441 1130 q 461 1054 441 1074 q 509 1034 481 1034 m 523 339 l 590 68 l 390 68 l 373 0 l 34 0 l 305 949 l 373 949 l 491 471 l 458 339 l 523 339 m 584 949 l 712 949 l 983 0 l 644 0 l 408 949 l 433 949 q 389 982 409 962 q 339 1102 339 1031 q 389 1222 339 1173 q 509 1272 438 1272 q 629 1222 579 1272 q 678 1102 678 1173 q 629 982 678 1031 q 584 949 608 962 z "},"Æ":{"ha":1356,"x_min":34,"x_max":1322,"o":"m 523 339 l 590 68 l 390 68 l 373 0 l 34 0 l 305 949 l 373 949 l 491 471 l 458 339 l 523 339 m 1017 271 l 1322 271 l 1322 0 l 1017 0 l 1017 271 m 1017 610 l 1322 610 l 1322 339 l 1017 339 l 1017 610 m 1017 949 l 1322 949 l 1322 678 l 1017 678 l 1017 949 m 644 0 l 408 949 l 983 949 l 983 0 l 644 0 z "},"Ç":{"ha":882,"x_min":34,"x_max":848,"o":"m 458 949 l 576 949 q 848 678 848 949 l 848 610 l 509 610 l 509 678 l 458 678 l 458 949 m 475 0 l 458 0 l 458 271 l 509 271 l 509 339 l 848 339 l 848 271 q 576 0 848 0 l 509 0 l 509 -34 l 543 -34 l 543 -136 l 373 -136 l 373 -68 l 407 -68 l 407 -102 l 509 -102 l 509 -68 l 475 -68 l 475 0 m 424 0 l 305 0 q 34 271 34 0 l 34 678 q 305 949 34 949 l 424 949 l 424 678 l 373 678 l 373 271 l 424 271 l 424 0 z "},"È":{"ha":746,"x_min":34,"x_max":712,"o":"m 373 0 l 34 0 l 34 949 l 373 949 l 373 0 m 407 949 l 712 949 l 712 678 l 407 678 l 407 949 m 407 610 l 712 610 l 712 339 l 407 339 l 407 610 m 407 271 l 712 271 l 712 0 l 407 0 l 407 271 m 136 1289 l 339 1289 l 475 1017 l 271 1017 l 136 1289 z "},"É":{"ha":746,"x_min":34,"x_max":712,"o":"m 373 0 l 34 0 l 34 949 l 373 949 l 373 0 m 407 949 l 712 949 l 712 678 l 407 678 l 407 949 m 407 610 l 712 610 l 712 339 l 407 339 l 407 610 m 407 271 l 712 271 l 712 0 l 407 0 l 407 271 m 610 1289 l 475 1017 l 271 1017 l 407 1289 l 610 1289 z "},"Ê":{"ha":746,"x_min":34,"x_max":712,"o":"m 373 0 l 34 0 l 34 949 l 373 949 l 373 0 m 407 949 l 712 949 l 712 678 l 407 678 l 407 949 m 407 610 l 712 610 l 712 339 l 407 339 l 407 610 m 407 271 l 712 271 l 712 0 l 407 0 l 407 271 m 373 1153 l 305 1017 l 102 1017 l 237 1289 l 509 1289 l 644 1017 l 441 1017 l 373 1153 z "},"Ë":{"ha":746,"x_min":34,"x_max":712,"o":"m 373 0 l 34 0 l 34 949 l 373 949 l 373 0 m 407 949 l 712 949 l 712 678 l 407 678 l 407 949 m 407 610 l 712 610 l 712 339 l 407 339 l 407 610 m 407 271 l 712 271 l 712 0 l 407 0 l 407 271 m 220 1017 q 137 1052 172 1017 q 102 1136 102 1087 q 137 1220 102 1185 q 220 1255 172 1255 q 304 1220 269 1255 q 339 1136 339 1185 q 304 1052 339 1087 q 220 1017 269 1017 m 526 1017 q 442 1052 477 1017 q 407 1136 407 1087 q 442 1220 407 1185 q 526 1255 477 1255 q 609 1220 574 1255 q 644 1136 644 1185 q 609 1052 644 1087 q 526 1017 574 1017 z "},"Ì":{"ha":407,"x_min":-34,"x_max":373,"o":"m 373 949 l 373 0 l 34 0 l 34 949 l 373 949 m -34 1289 l 170 1289 l 305 1017 l 102 1017 l -34 1289 z "},"Í":{"ha":407,"x_min":34,"x_max":441,"o":"m 373 949 l 373 0 l 34 0 l 34 949 l 373 949 m 441 1289 l 305 1017 l 102 1017 l 237 1289 l 441 1289 z "},"Î":{"ha":407,"x_min":-68,"x_max":475,"o":"m 373 949 l 373 0 l 34 0 l 34 949 l 373 949 m 203 1153 l 136 1017 l -68 1017 l 68 1289 l 339 1289 l 475 1017 l 271 1017 l 203 1153 z "},"Ï":{"ha":407,"x_min":-68,"x_max":475,"o":"m 373 949 l 373 0 l 34 0 l 34 949 l 373 949 m 51 1017 q -33 1052 2 1017 q -68 1136 -68 1087 q -33 1220 -68 1185 q 51 1255 2 1255 q 135 1220 100 1255 q 170 1136 170 1185 q 135 1052 170 1087 q 51 1017 100 1017 m 356 1017 q 272 1052 307 1017 q 237 1136 237 1087 q 272 1220 237 1185 q 356 1255 307 1255 q 440 1220 405 1255 q 475 1136 475 1185 q 440 1052 475 1087 q 356 1017 405 1017 z "},"Ð":{"ha":949,"x_min":34,"x_max":916,"o":"m 441 0 l 475 0 l 475 -17 l 441 -17 l 441 0 m 475 678 l 475 949 l 644 949 q 916 678 916 949 l 916 271 q 644 0 916 0 l 475 0 l 475 271 l 576 271 l 576 678 l 475 678 m 441 339 l 441 0 l 102 0 l 102 339 l 34 339 l 34 610 l 102 610 l 102 949 l 441 949 l 441 610 l 509 610 l 509 339 l 441 339 z "},"Ñ":{"ha":882,"x_min":34,"x_max":848,"o":"m 103 949 l 305 949 l 509 543 l 509 949 l 848 949 l 848 0 l 576 0 l 103 949 m 373 330 l 373 0 l 34 0 l 34 949 l 65 949 l 373 330 m 170 1050 l 168 1227 q 317 1258 250 1258 q 439 1227 385 1258 q 518 1207 476 1207 q 711 1289 602 1207 l 713 1112 q 520 1030 604 1030 q 441 1050 477 1030 q 319 1081 387 1081 q 170 1050 252 1081 z "},"Ò":{"ha":882,"x_min":34,"x_max":848,"o":"m 424 271 l 424 0 l 305 0 q 34 271 34 0 l 34 678 q 305 949 34 949 l 424 949 l 424 678 l 373 678 l 373 271 l 424 271 m 458 678 l 458 949 l 576 949 q 848 678 848 949 l 848 271 q 576 0 848 0 l 458 0 l 458 271 l 509 271 l 509 678 l 458 678 m 203 1289 l 407 1289 l 543 1017 l 339 1017 l 203 1289 z "},"Ó":{"ha":882,"x_min":34,"x_max":848,"o":"m 424 271 l 424 0 l 305 0 q 34 271 34 0 l 34 678 q 305 949 34 949 l 424 949 l 424 678 l 373 678 l 373 271 l 424 271 m 458 678 l 458 949 l 576 949 q 848 678 848 949 l 848 271 q 576 0 848 0 l 458 0 l 458 271 l 509 271 l 509 678 l 458 678 m 678 1289 l 543 1017 l 339 1017 l 475 1289 l 678 1289 z "},"Ô":{"ha":882,"x_min":34,"x_max":848,"o":"m 424 271 l 424 0 l 305 0 q 34 271 34 0 l 34 678 q 305 949 34 949 l 424 949 l 424 678 l 373 678 l 373 271 l 424 271 m 458 678 l 458 949 l 576 949 q 848 678 848 949 l 848 271 q 576 0 848 0 l 458 0 l 458 271 l 509 271 l 509 678 l 458 678 m 407 1153 l 339 1017 l 136 1017 l 271 1289 l 543 1289 l 678 1017 l 475 1017 l 407 1153 z "},"Õ":{"ha":882,"x_min":34,"x_max":848,"o":"m 424 271 l 424 0 l 305 0 q 34 271 34 0 l 34 678 q 305 949 34 949 l 424 949 l 424 678 l 373 678 l 373 271 l 424 271 m 458 678 l 458 949 l 576 949 q 848 678 848 949 l 848 271 q 576 0 848 0 l 458 0 l 458 271 l 509 271 l 509 678 l 458 678 m 170 1050 l 168 1227 q 317 1258 250 1258 q 439 1227 385 1258 q 518 1207 476 1207 q 711 1289 602 1207 l 713 1112 q 520 1030 604 1030 q 441 1050 477 1030 q 319 1081 387 1081 q 170 1050 252 1081 z "},"Ö":{"ha":882,"x_min":34,"x_max":848,"o":"m 424 271 l 424 0 l 305 0 q 34 271 34 0 l 34 678 q 305 949 34 949 l 424 949 l 424 678 l 373 678 l 373 271 l 424 271 m 458 678 l 458 949 l 576 949 q 848 678 848 949 l 848 271 q 576 0 848 0 l 458 0 l 458 271 l 509 271 l 509 678 l 458 678 m 288 1017 q 204 1052 239 1017 q 170 1136 170 1087 q 204 1220 170 1185 q 288 1255 239 1255 q 372 1220 337 1255 q 407 1136 407 1185 q 372 1052 407 1087 q 288 1017 337 1017 m 593 1017 q 510 1052 545 1017 q 475 1136 475 1087 q 510 1220 475 1185 q 593 1255 545 1255 q 677 1220 642 1255 q 712 1136 712 1185 q 677 1052 712 1087 q 593 1017 642 1017 z "},"×":{"ha":746,"x_min":37,"x_max":709,"o":"m 565 475 l 709 331 l 517 139 l 373 283 l 229 139 l 37 331 l 181 475 l 37 618 l 229 810 l 373 667 l 517 810 l 709 618 l 565 475 z "},"Ø":{"ha":882,"x_min":0,"x_max":848,"o":"m 373 372 l 373 271 l 424 271 l 424 0 l 305 0 q 114 56 182 0 l 68 0 l 0 0 l 79 96 q 34 271 34 161 l 34 678 q 305 949 34 949 l 424 949 l 424 678 l 373 678 l 373 454 l 509 619 l 509 678 l 458 678 l 458 949 l 576 949 q 746 909 682 949 l 780 949 l 848 949 l 787 875 q 848 678 848 807 l 848 271 q 576 0 848 0 l 458 0 l 458 271 l 509 271 l 509 536 l 373 372 z "},"Ù":{"ha":882,"x_min":34,"x_max":848,"o":"m 458 271 l 509 271 l 509 949 l 848 949 l 848 271 q 576 0 848 0 l 458 0 l 458 271 m 424 0 l 305 0 q 34 271 34 0 l 34 949 l 373 949 l 373 271 l 424 271 l 424 0 m 203 1289 l 407 1289 l 543 1017 l 339 1017 l 203 1289 z "},"Ú":{"ha":882,"x_min":34,"x_max":848,"o":"m 458 271 l 509 271 l 509 949 l 848 949 l 848 271 q 576 0 848 0 l 458 0 l 458 271 m 424 0 l 305 0 q 34 271 34 0 l 34 949 l 373 949 l 373 271 l 424 271 l 424 0 m 678 1289 l 543 1017 l 339 1017 l 475 1289 l 678 1289 z "},"Û":{"ha":882,"x_min":34,"x_max":848,"o":"m 458 271 l 509 271 l 509 949 l 848 949 l 848 271 q 576 0 848 0 l 458 0 l 458 271 m 424 0 l 305 0 q 34 271 34 0 l 34 949 l 373 949 l 373 271 l 424 271 l 424 0 m 407 1153 l 339 1017 l 136 1017 l 271 1289 l 543 1289 l 678 1017 l 475 1017 l 407 1153 z "},"Ü":{"ha":882,"x_min":34,"x_max":848,"o":"m 458 271 l 509 271 l 509 949 l 848 949 l 848 271 q 576 0 848 0 l 458 0 l 458 271 m 424 0 l 305 0 q 34 271 34 0 l 34 949 l 373 949 l 373 271 l 424 271 l 424 0 m 288 1017 q 204 1052 239 1017 q 170 1136 170 1087 q 204 1220 170 1185 q 288 1255 239 1255 q 372 1220 337 1255 q 407 1136 407 1185 q 372 1052 407 1087 q 288 1017 337 1017 m 593 1017 q 510 1052 545 1017 q 475 1136 475 1087 q 510 1220 475 1185 q 593 1255 545 1255 q 677 1220 642 1255 q 712 1136 712 1185 q 677 1052 712 1087 q 593 1017 642 1017 z "},"Ý":{"ha":1017,"x_min":34,"x_max":983,"o":"m 644 949 l 983 949 l 677 481 l 679 0 l 340 0 l 338 481 l 644 949 m 314 514 l 34 949 l 373 949 l 488 777 l 314 514 m 746 1289 l 610 1017 l 407 1017 l 543 1289 l 746 1289 z "},"Þ":{"ha":882,"x_min":34,"x_max":848,"o":"m 407 543 l 407 814 l 576 814 q 848 543 848 814 l 848 475 q 576 203 848 203 l 407 203 l 407 475 l 509 475 l 509 543 l 407 543 m 373 -136 l 34 -136 l 34 949 l 373 949 l 373 -136 z "},"ß":{"ha":882,"x_min":34,"x_max":848,"o":"m 441 339 l 441 610 l 509 610 l 509 678 l 407 678 l 407 949 l 576 949 q 848 678 848 949 l 848 610 q 780 475 848 509 q 848 339 848 441 l 848 136 q 576 -136 848 -136 l 441 -136 l 441 136 l 509 136 l 509 339 l 441 339 m 373 0 l 34 0 l 34 949 l 373 949 l 373 0 z "},"à":{"ha":1017,"x_min":34,"x_max":983,"o":"m 523 339 l 590 68 l 390 68 l 373 0 l 34 0 l 305 949 l 373 949 l 491 471 l 458 339 l 523 339 m 408 949 l 712 949 l 983 0 l 644 0 l 408 949 m 271 1289 l 475 1289 l 610 1017 l 407 1017 l 271 1289 z "},"á":{"ha":1017,"x_min":34,"x_max":983,"o":"m 523 339 l 590 68 l 390 68 l 373 0 l 34 0 l 305 949 l 373 949 l 491 471 l 458 339 l 523 339 m 408 949 l 712 949 l 983 0 l 644 0 l 408 949 m 746 1289 l 610 1017 l 407 1017 l 543 1289 l 746 1289 z "},"â":{"ha":1017,"x_min":34,"x_max":983,"o":"m 523 339 l 590 68 l 390 68 l 373 0 l 34 0 l 305 949 l 373 949 l 491 471 l 458 339 l 523 339 m 408 949 l 712 949 l 983 0 l 644 0 l 408 949 m 509 1153 l 441 1017 l 237 1017 l 373 1289 l 644 1289 l 780 1017 l 576 1017 l 509 1153 z "},"ã":{"ha":1017,"x_min":34,"x_max":983,"o":"m 523 339 l 590 68 l 390 68 l 373 0 l 34 0 l 305 949 l 373 949 l 491 471 l 458 339 l 523 339 m 408 949 l 712 949 l 983 0 l 644 0 l 408 949 m 170 1050 l 168 1227 q 317 1258 249 1258 q 439 1227 385 1258 q 517 1207 475 1207 q 710 1289 602 1207 l 712 1112 q 519 1030 604 1030 q 441 1050 477 1030 q 319 1081 387 1081 q 170 1050 251 1081 z "},"ä":{"ha":1017,"x_min":34,"x_max":983,"o":"m 523 339 l 590 68 l 390 68 l 373 0 l 34 0 l 305 949 l 373 949 l 491 471 l 458 339 l 523 339 m 408 949 l 712 949 l 983 0 l 644 0 l 408 949 m 356 1017 q 272 1052 307 1017 q 237 1136 237 1087 q 272 1220 237 1185 q 356 1255 307 1255 q 440 1220 405 1255 q 475 1136 475 1185 q 440 1052 475 1087 q 356 1017 405 1017 m 661 1017 q 577 1052 612 1017 q 543 1136 543 1087 q 577 1220 543 1185 q 661 1255 612 1255 q 745 1220 710 1255 q 780 1136 780 1185 q 745 1052 780 1087 q 661 1017 710 1017 z "},"å":{"ha":1017,"x_min":34,"x_max":983,"o":"m 509 1034 q 556 1054 536 1034 q 576 1102 576 1074 q 556 1150 576 1130 q 509 1170 536 1170 q 461 1150 481 1170 q 441 1102 441 1130 q 461 1054 441 1074 q 509 1034 481 1034 m 523 339 l 590 68 l 390 68 l 373 0 l 34 0 l 305 949 l 373 949 l 491 471 l 458 339 l 523 339 m 584 949 l 712 949 l 983 0 l 644 0 l 408 949 l 433 949 q 389 982 409 962 q 339 1102 339 1031 q 389 1222 339 1173 q 509 1272 438 1272 q 629 1222 579 1272 q 678 1102 678 1173 q 629 982 678 1031 q 584 949 608 962 z "},"æ":{"ha":1356,"x_min":34,"x_max":1322,"o":"m 523 339 l 590 68 l 390 68 l 373 0 l 34 0 l 305 949 l 373 949 l 491 471 l 458 339 l 523 339 m 1017 271 l 1322 271 l 1322 0 l 1017 0 l 1017 271 m 1017 610 l 1322 610 l 1322 339 l 1017 339 l 1017 610 m 1017 949 l 1322 949 l 1322 678 l 1017 678 l 1017 949 m 644 0 l 408 949 l 983 949 l 983 0 l 644 0 z "},"ç":{"ha":882,"x_min":34,"x_max":848,"o":"m 458 949 l 576 949 q 848 678 848 949 l 848 610 l 509 610 l 509 678 l 458 678 l 458 949 m 475 0 l 458 0 l 458 271 l 509 271 l 509 339 l 848 339 l 848 271 q 576 0 848 0 l 509 0 l 509 -34 l 543 -34 l 543 -136 l 373 -136 l 373 -68 l 407 -68 l 407 -102 l 509 -102 l 509 -68 l 475 -68 l 475 0 m 424 0 l 305 0 q 34 271 34 0 l 34 678 q 305 949 34 949 l 424 949 l 424 678 l 373 678 l 373 271 l 424 271 l 424 0 z "},"è":{"ha":746,"x_min":34,"x_max":712,"o":"m 373 0 l 34 0 l 34 949 l 373 949 l 373 0 m 407 949 l 712 949 l 712 678 l 407 678 l 407 949 m 407 610 l 712 610 l 712 339 l 407 339 l 407 610 m 407 271 l 712 271 l 712 0 l 407 0 l 407 271 m 136 1289 l 339 1289 l 475 1017 l 271 1017 l 136 1289 z "},"é":{"ha":746,"x_min":34,"x_max":712,"o":"m 373 0 l 34 0 l 34 949 l 373 949 l 373 0 m 407 949 l 712 949 l 712 678 l 407 678 l 407 949 m 407 610 l 712 610 l 712 339 l 407 339 l 407 610 m 407 271 l 712 271 l 712 0 l 407 0 l 407 271 m 610 1289 l 475 1017 l 271 1017 l 407 1289 l 610 1289 z "},"ê":{"ha":746,"x_min":34,"x_max":712,"o":"m 373 0 l 34 0 l 34 949 l 373 949 l 373 0 m 407 949 l 712 949 l 712 678 l 407 678 l 407 949 m 407 610 l 712 610 l 712 339 l 407 339 l 407 610 m 407 271 l 712 271 l 712 0 l 407 0 l 407 271 m 373 1153 l 305 1017 l 102 1017 l 237 1289 l 509 1289 l 644 1017 l 441 1017 l 373 1153 z "},"ë":{"ha":746,"x_min":34,"x_max":712,"o":"m 373 0 l 34 0 l 34 949 l 373 949 l 373 0 m 407 949 l 712 949 l 712 678 l 407 678 l 407 949 m 407 610 l 712 610 l 712 339 l 407 339 l 407 610 m 407 271 l 712 271 l 712 0 l 407 0 l 407 271 m 220 1017 q 137 1052 172 1017 q 102 1136 102 1087 q 137 1220 102 1185 q 220 1255 172 1255 q 304 1220 269 1255 q 339 1136 339 1185 q 304 1052 339 1087 q 220 1017 269 1017 m 526 1017 q 442 1052 477 1017 q 407 1136 407 1087 q 442 1220 407 1185 q 526 1255 477 1255 q 609 1220 574 1255 q 644 1136 644 1185 q 609 1052 644 1087 q 526 1017 574 1017 z "},"ì":{"ha":407,"x_min":-34,"x_max":373,"o":"m 373 949 l 373 0 l 34 0 l 34 949 l 373 949 m -34 1289 l 170 1289 l 305 1017 l 102 1017 l -34 1289 z "},"í":{"ha":407,"x_min":34,"x_max":441,"o":"m 373 949 l 373 0 l 34 0 l 34 949 l 373 949 m 441 1289 l 305 1017 l 102 1017 l 237 1289 l 441 1289 z "},"î":{"ha":407,"x_min":-68,"x_max":475,"o":"m 373 949 l 373 0 l 34 0 l 34 949 l 373 949 m 203 1153 l 136 1017 l -68 1017 l 68 1289 l 339 1289 l 475 1017 l 271 1017 l 203 1153 z "},"ï":{"ha":407,"x_min":-68,"x_max":475,"o":"m 373 949 l 373 0 l 34 0 l 34 949 l 373 949 m 51 1017 q -33 1052 2 1017 q -68 1136 -68 1087 q -33 1220 -68 1185 q 51 1255 2 1255 q 135 1220 100 1255 q 170 1136 170 1185 q 135 1052 170 1087 q 51 1017 100 1017 m 356 1017 q 272 1052 307 1017 q 237 1136 237 1087 q 272 1220 237 1185 q 356 1255 307 1255 q 440 1220 405 1255 q 475 1136 475 1185 q 440 1052 475 1087 q 356 1017 405 1017 z "},"ð":{"ha":882,"x_min":34,"x_max":916,"o":"m 424 271 l 424 0 l 305 0 q 34 271 34 0 l 34 543 q 305 814 34 814 l 424 814 l 424 543 l 373 543 l 373 271 l 424 271 m 848 271 q 576 0 848 0 l 458 0 l 458 271 l 509 271 l 509 543 l 458 543 l 458 814 l 576 814 q 678 802 633 814 l 678 848 l 610 848 l 610 916 l 678 916 l 678 983 l 848 983 l 848 916 l 916 916 l 916 848 l 848 848 l 848 271 z "},"ñ":{"ha":882,"x_min":34,"x_max":848,"o":"m 103 949 l 305 949 l 509 543 l 509 949 l 848 949 l 848 0 l 576 0 l 103 949 m 373 330 l 373 0 l 34 0 l 34 949 l 65 949 l 373 330 m 170 1050 l 168 1227 q 317 1258 250 1258 q 439 1227 385 1258 q 518 1207 476 1207 q 711 1289 602 1207 l 713 1112 q 520 1030 604 1030 q 441 1050 477 1030 q 319 1081 387 1081 q 170 1050 252 1081 z "},"ò":{"ha":882,"x_min":34,"x_max":848,"o":"m 424 271 l 424 0 l 305 0 q 34 271 34 0 l 34 678 q 305 949 34 949 l 424 949 l 424 678 l 373 678 l 373 271 l 424 271 m 458 678 l 458 949 l 576 949 q 848 678 848 949 l 848 271 q 576 0 848 0 l 458 0 l 458 271 l 509 271 l 509 678 l 458 678 m 203 1289 l 407 1289 l 543 1017 l 339 1017 l 203 1289 z "},"ó":{"ha":882,"x_min":34,"x_max":848,"o":"m 424 271 l 424 0 l 305 0 q 34 271 34 0 l 34 678 q 305 949 34 949 l 424 949 l 424 678 l 373 678 l 373 271 l 424 271 m 458 678 l 458 949 l 576 949 q 848 678 848 949 l 848 271 q 576 0 848 0 l 458 0 l 458 271 l 509 271 l 509 678 l 458 678 m 678 1289 l 543 1017 l 339 1017 l 475 1289 l 678 1289 z "},"ô":{"ha":882,"x_min":34,"x_max":848,"o":"m 424 271 l 424 0 l 305 0 q 34 271 34 0 l 34 678 q 305 949 34 949 l 424 949 l 424 678 l 373 678 l 373 271 l 424 271 m 458 678 l 458 949 l 576 949 q 848 678 848 949 l 848 271 q 576 0 848 0 l 458 0 l 458 271 l 509 271 l 509 678 l 458 678 m 407 1153 l 339 1017 l 136 1017 l 271 1289 l 543 1289 l 678 1017 l 475 1017 l 407 1153 z "},"õ":{"ha":882,"x_min":34,"x_max":848,"o":"m 424 271 l 424 0 l 305 0 q 34 271 34 0 l 34 678 q 305 949 34 949 l 424 949 l 424 678 l 373 678 l 373 271 l 424 271 m 458 678 l 458 949 l 576 949 q 848 678 848 949 l 848 271 q 576 0 848 0 l 458 0 l 458 271 l 509 271 l 509 678 l 458 678 m 170 1050 l 168 1227 q 317 1258 250 1258 q 439 1227 385 1258 q 518 1207 476 1207 q 711 1289 602 1207 l 713 1112 q 520 1030 604 1030 q 441 1050 477 1030 q 319 1081 387 1081 q 170 1050 252 1081 z "},"ö":{"ha":882,"x_min":34,"x_max":848,"o":"m 424 271 l 424 0 l 305 0 q 34 271 34 0 l 34 678 q 305 949 34 949 l 424 949 l 424 678 l 373 678 l 373 271 l 424 271 m 458 678 l 458 949 l 576 949 q 848 678 848 949 l 848 271 q 576 0 848 0 l 458 0 l 458 271 l 509 271 l 509 678 l 458 678 m 288 1017 q 204 1052 239 1017 q 170 1136 170 1087 q 204 1220 170 1185 q 288 1255 239 1255 q 372 1220 337 1255 q 407 1136 407 1185 q 372 1052 407 1087 q 288 1017 337 1017 m 593 1017 q 510 1052 545 1017 q 475 1136 475 1087 q 510 1220 475 1185 q 593 1255 545 1255 q 677 1220 642 1255 q 712 1136 712 1185 q 677 1052 712 1087 q 593 1017 642 1017 z "},"÷":{"ha":746,"x_min":34,"x_max":712,"o":"m 712 678 l 712 407 l 34 407 l 34 678 l 712 678 m 373 339 q 493 290 444 339 q 543 170 543 240 q 493 50 543 99 q 373 0 444 0 q 253 50 302 0 q 203 170 203 99 q 253 290 203 240 q 373 339 302 339 m 373 1085 q 493 1036 444 1085 q 543 916 543 986 q 493 795 543 845 q 373 746 444 746 q 253 795 302 746 q 203 916 203 845 q 253 1036 203 986 q 373 1085 302 1085 z "},"ø":{"ha":882,"x_min":0,"x_max":848,"o":"m 373 372 l 373 271 l 424 271 l 424 0 l 305 0 q 114 56 182 0 l 68 0 l 0 0 l 79 96 q 34 271 34 161 l 34 678 q 305 949 34 949 l 424 949 l 424 678 l 373 678 l 373 454 l 509 619 l 509 678 l 458 678 l 458 949 l 576 949 q 746 909 682 949 l 780 949 l 848 949 l 787 875 q 848 678 848 807 l 848 271 q 576 0 848 0 l 458 0 l 458 271 l 509 271 l 509 536 l 373 372 z "},"ù":{"ha":882,"x_min":34,"x_max":848,"o":"m 458 271 l 509 271 l 509 949 l 848 949 l 848 271 q 576 0 848 0 l 458 0 l 458 271 m 424 0 l 305 0 q 34 271 34 0 l 34 949 l 373 949 l 373 271 l 424 271 l 424 0 m 203 1289 l 407 1289 l 543 1017 l 339 1017 l 203 1289 z "},"ú":{"ha":882,"x_min":34,"x_max":848,"o":"m 458 271 l 509 271 l 509 949 l 848 949 l 848 271 q 576 0 848 0 l 458 0 l 458 271 m 424 0 l 305 0 q 34 271 34 0 l 34 949 l 373 949 l 373 271 l 424 271 l 424 0 m 678 1289 l 543 1017 l 339 1017 l 475 1289 l 678 1289 z "},"û":{"ha":882,"x_min":34,"x_max":848,"o":"m 458 271 l 509 271 l 509 949 l 848 949 l 848 271 q 576 0 848 0 l 458 0 l 458 271 m 424 0 l 305 0 q 34 271 34 0 l 34 949 l 373 949 l 373 271 l 424 271 l 424 0 m 407 1153 l 339 1017 l 136 1017 l 271 1289 l 543 1289 l 678 1017 l 475 1017 l 407 1153 z "},"ü":{"ha":882,"x_min":34,"x_max":848,"o":"m 458 271 l 509 271 l 509 949 l 848 949 l 848 271 q 576 0 848 0 l 458 0 l 458 271 m 424 0 l 305 0 q 34 271 34 0 l 34 949 l 373 949 l 373 271 l 424 271 l 424 0 m 288 1017 q 204 1052 239 1017 q 170 1136 170 1087 q 204 1220 170 1185 q 288 1255 239 1255 q 372 1220 337 1255 q 407 1136 407 1185 q 372 1052 407 1087 q 288 1017 337 1017 m 593 1017 q 510 1052 545 1017 q 475 1136 475 1087 q 510 1220 475 1185 q 593 1255 545 1255 q 677 1220 642 1255 q 712 1136 712 1185 q 677 1052 712 1087 q 593 1017 642 1017 z "},"ý":{"ha":1017,"x_min":34,"x_max":983,"o":"m 644 949 l 983 949 l 677 481 l 679 0 l 340 0 l 338 481 l 644 949 m 314 514 l 34 949 l 373 949 l 488 777 l 314 514 m 746 1289 l 610 1017 l 407 1017 l 543 1289 l 746 1289 z "},"þ":{"ha":882,"x_min":34,"x_max":848,"o":"m 407 543 l 407 814 l 576 814 q 848 543 848 814 l 848 475 q 576 203 848 203 l 407 203 l 407 475 l 509 475 l 509 543 l 407 543 m 373 -136 l 34 -136 l 34 949 l 373 949 l 373 -136 z "},"ÿ":{"ha":1017,"x_min":34,"x_max":983,"o":"m 644 949 l 983 949 l 677 481 l 679 0 l 340 0 l 338 481 l 644 949 m 314 514 l 34 949 l 373 949 l 488 777 l 314 514 m 356 1017 q 272 1052 307 1017 q 237 1136 237 1087 q 272 1220 237 1185 q 356 1255 307 1255 q 440 1220 405 1255 q 475 1136 475 1185 q 440 1052 475 1087 q 356 1017 405 1017 m 661 1017 q 577 1052 612 1017 q 543 1136 543 1087 q 577 1220 543 1185 q 661 1255 612 1255 q 745 1220 710 1255 q 780 1136 780 1185 q 745 1052 780 1087 q 661 1017 710 1017 z "},"Œ":{"ha":1221,"x_min":34,"x_max":1187,"o":"m 424 271 l 424 0 l 305 0 q 34 271 34 0 l 34 678 q 305 949 34 949 l 424 949 l 424 678 l 373 678 l 373 271 l 424 271 m 882 271 l 1187 271 l 1187 0 l 882 0 l 882 271 m 882 610 l 1187 610 l 1187 339 l 882 339 l 882 610 m 882 949 l 1187 949 l 1187 678 l 882 678 l 882 949 m 509 678 l 458 678 l 458 949 l 848 949 l 848 0 l 458 0 l 458 271 l 509 271 l 509 678 z "},"œ":{"ha":1221,"x_min":34,"x_max":1187,"o":"m 424 271 l 424 0 l 305 0 q 34 271 34 0 l 34 678 q 305 949 34 949 l 424 949 l 424 678 l 373 678 l 373 271 l 424 271 m 882 271 l 1187 271 l 1187 0 l 882 0 l 882 271 m 882 610 l 1187 610 l 1187 339 l 882 339 l 882 610 m 882 949 l 1187 949 l 1187 678 l 882 678 l 882 949 m 509 678 l 458 678 l 458 949 l 848 949 l 848 0 l 458 0 l 458 271 l 509 271 l 509 678 z "},"ˆ":{"ha":746,"x_min":34,"x_max":712,"o":"m 576 1356 l 712 1017 l 441 1017 l 373 1187 l 305 1017 l 34 1017 l 170 1356 l 576 1356 z "},"˜":{"ha":746,"x_min":34,"x_max":712,"o":"m 34 1040 l 34 1311 q 220 1345 136 1345 q 373 1311 305 1345 q 471 1289 418 1289 q 712 1379 576 1289 l 712 1107 q 471 1017 576 1017 q 373 1040 418 1017 q 220 1074 305 1074 q 34 1040 136 1074 z "},"˝":{"ha":845,"x_min":34,"x_max":811,"o":"m 305 610 l 34 610 l 170 949 l 441 949 l 305 610 m 675 610 l 404 610 l 540 949 l 811 949 l 675 610 z "},"̀":{"ha":475,"x_min":68,"x_max":407,"o":"m 68 1289 l 271 1289 l 407 1017 l 203 1017 l 68 1289 z "},"́":{"ha":475,"x_min":68,"x_max":407,"o":"m 407 1289 l 271 1017 l 68 1017 l 203 1289 l 407 1289 z "},"̂":{"ha":678,"x_min":68,"x_max":610,"o":"m 339 1153 l 271 1017 l 68 1017 l 203 1289 l 475 1289 l 610 1017 l 407 1017 l 339 1153 z "},"̃":{"ha":610,"x_min":32,"x_max":576,"o":"m 34 1050 l 32 1227 q 181 1258 113 1258 q 303 1227 249 1258 q 382 1207 340 1207 q 574 1289 466 1207 l 576 1112 q 384 1030 468 1030 q 305 1050 341 1030 q 183 1081 251 1081 q 34 1050 115 1081 z "},"̈":{"ha":576,"x_min":34,"x_max":576,"o":"m 153 1017 q 69 1052 104 1017 q 34 1136 34 1087 q 69 1220 34 1185 q 153 1255 104 1255 q 236 1220 201 1255 q 271 1136 271 1185 q 236 1052 271 1087 q 153 1017 201 1017 m 458 1017 q 374 1052 409 1017 q 339 1136 339 1087 q 374 1220 339 1185 q 458 1255 409 1255 q 542 1220 507 1255 q 576 1136 576 1185 q 542 1052 576 1087 q 458 1017 507 1017 z "},"̊":{"ha":407,"x_min":34,"x_max":373,"o":"m 203 1272 q 323 1222 274 1272 q 373 1102 373 1173 q 323 982 373 1031 q 203 932 274 932 q 83 982 133 932 q 34 1102 34 1031 q 83 1222 34 1173 q 203 1272 133 1272 m 203 1034 q 251 1054 231 1034 q 271 1102 271 1074 q 251 1150 271 1130 q 203 1170 231 1170 q 156 1150 176 1170 q 136 1102 136 1130 q 156 1054 136 1074 q 203 1034 176 1034 z "},"–":{"ha":746,"x_min":34,"x_max":712,"o":"m 712 610 l 712 339 l 34 339 l 34 610 l 712 610 z "},"—":{"ha":1356,"x_min":34,"x_max":1322,"o":"m 1322 610 l 1322 339 l 34 339 l 34 610 l 1322 610 z "},"‘":{"ha":339,"x_min":34,"x_max":305,"o":"m 305 949 l 305 543 l 34 543 l 34 949 l 305 949 z "},"’":{"ha":339,"x_min":34,"x_max":305,"o":"m 305 949 l 305 543 l 34 543 l 34 949 l 305 949 z "},"‚":{"ha":339,"x_min":34,"x_max":305,"o":"m 305 136 l 305 -271 l 34 -271 l 34 136 l 305 136 z "},"“":{"ha":678,"x_min":34,"x_max":644,"o":"m 305 949 l 305 543 l 34 543 l 34 949 l 305 949 m 644 949 l 644 543 l 373 543 l 373 949 l 644 949 z "},"”":{"ha":678,"x_min":34,"x_max":644,"o":"m 305 949 l 305 543 l 34 543 l 34 949 l 305 949 m 644 949 l 644 543 l 373 543 l 373 949 l 644 949 z "},"„":{"ha":678,"x_min":34,"x_max":644,"o":"m 305 136 l 305 -271 l 34 -271 l 34 136 l 305 136 m 644 136 l 644 -271 l 373 -271 l 373 136 l 644 136 z "},"•":{"ha":407,"x_min":34,"x_max":373,"o":"m 203 678 q 323 629 274 678 q 373 509 373 579 q 323 389 373 438 q 203 339 274 339 q 83 389 133 339 q 34 509 34 438 q 83 629 34 579 q 203 678 133 678 z "},"…":{"ha":1220,"x_min":34,"x_max":1186,"o":"m 203 339 q 323 290 274 339 q 373 170 373 240 q 323 50 373 99 q 203 0 274 0 q 83 50 133 0 q 34 170 34 99 q 83 290 34 240 q 203 339 133 339 m 612 339 q 732 290 682 339 q 781 170 781 240 q 732 50 781 99 q 612 0 682 0 q 492 50 541 0 q 442 170 442 99 q 492 290 442 240 q 612 339 541 339 m 1017 339 q 1137 290 1087 339 q 1186 170 1186 240 q 1137 50 1186 99 q 1017 0 1087 0 q 897 50 946 0 q 847 170 847 99 q 897 290 847 240 q 1017 339 946 339 z "},"‹":{"ha":1153,"x_min":34,"x_max":1119,"o":"m 34 543 l 610 882 l 610 610 l 339 475 l 610 339 l 610 68 l 34 407 l 34 543 m 543 543 l 1119 882 l 1119 610 l 848 475 l 1119 339 l 1119 68 l 543 407 l 543 543 z "},"›":{"ha":1153,"x_min":34,"x_max":1119,"o":"m 1119 543 l 1119 407 l 543 68 l 543 339 l 814 475 l 543 610 l 543 882 l 1119 543 m 610 543 l 610 407 l 34 68 l 34 339 l 305 475 l 34 610 l 34 882 l 610 543 z "},"€":{"ha":983,"x_min":34,"x_max":949,"o":"m 559 949 l 678 949 q 949 678 949 949 l 949 610 l 610 610 l 610 678 l 559 678 l 559 949 m 136 576 l 136 678 q 407 949 136 949 l 526 949 l 526 678 l 475 678 l 475 576 l 780 576 l 780 509 l 475 509 l 475 441 l 780 441 l 780 373 l 475 373 l 475 271 l 526 271 l 526 0 l 407 0 q 136 271 136 0 l 136 373 l 34 373 l 34 441 l 136 441 l 136 509 l 34 509 l 34 576 l 136 576 m 559 271 l 610 271 l 610 339 l 949 339 l 949 271 q 678 0 949 0 l 559 0 l 559 271 z "},"™":{"ha":814,"x_min":34,"x_max":780,"o":"m 237 848 l 237 610 l 136 610 l 136 848 l 34 848 l 34 950 l 339 949 l 339 848 l 237 848 m 780 949 l 780 610 l 678 610 l 678 780 l 610 610 l 543 610 l 475 780 l 475 610 l 374 610 l 374 950 l 509 949 l 576 780 l 644 949 l 780 949 z "},"−":{"ha":746,"x_min":34,"x_max":712,"o":"m 712 610 l 712 339 l 34 339 l 34 610 l 712 610 z "}}}
